<svg width="64" height="64" viewBox="0 0 64 64" fill="none" xmlns="http://www.w3.org/2000/svg">
<rect width="64" height="64" rx="4" fill="#FFE4CF"/>
<path d="M11 14C11 11.7909 12.7909 10 15 10H27C29.2091 10 31 11.7909 31 14V54H15C12.7909 54 11 52.2091 11 50V14Z" fill="#FF7C2A"/>
<path d="M29 34H53.1818C54.186 34 55 34.814 55 35.8182V35.8182C55 45.8597 46.8597 54 36.8182 54H29V34Z" fill="#FF7C2A"/>
<rect x="29" y="28.8" width="5.2" height="5.2" fill="#FF7C2A"/>
<path d="M31 21H44V34H33C31.8954 34 31 33.1046 31 32V21Z" fill="#FFE4CF"/>
<path d="M33 13.6667C33 11.6416 34.6416 10 36.6667 10V10C46.7919 10 55 18.2081 55 28.3333V28.3333C55 30.3584 53.3584 32 51.3333 32H35C33.8954 32 33 31.1046 33 30V13.6667Z" fill="#FF7C2A"/>
</svg>
